<svg xmlns="http://www.w3.org/2000/svg" viewBox="0 0 1100 470" role="img" aria-labelledby="title desc">
  <title id="title">Карта России</title>
  <desc id="desc">Стилизованный географический контур России для выбора региона</desc>
  <defs>
    <linearGradient id="mapFill" x1="0" y1="0" x2="1" y2="1">
      <stop offset="0" stop-color="#dce9ff"/>
      <stop offset="0.55" stop-color="#b9d1f7"/>
      <stop offset="1" stop-color="#91b6eb"/>
    </linearGradient>
    <filter id="shadow" x="-10%" y="-20%" width="120%" height="150%">
      <feDropShadow dx="0" dy="10" stdDeviation="12" flood-color="#1e4f93" flood-opacity="0.14"/>
    </filter>
    <pattern id="dots" width="18" height="18" patternUnits="userSpaceOnUse">
      <circle cx="2" cy="2" r="1.2" fill="#ffffff" fill-opacity="0.42"/>
    </pattern>
    <clipPath id="countryClip"><path d="M837.3,446.7 L833.8,443.6 L837.6,439.7 L836.7,434.4 L833.5,427.7 L828.0,421.1 L830.5,418.2 L831.7,413.5 L840.5,412.7 L841.2,411.1 L839.9,407.4 L841.0,405.5 L840.6,397.9 L837.3,386.9 L838.9,381.0 L834.6,375.9 L826.8,382.7 L824.4,388.6 L814.6,393.4 L806.7,383.6 L804.3,384.3 L797.7,381.6 L795.0,382.9 L791.7,381.7 L787.4,384.0 L783.6,382.9 L782.1,378.8 L780.0,378.1 L765.8,360.8 L759.0,355.7 L755.0,355.4 L753.7,356.7 L745.0,355.2 L730.1,363.0 L726.2,369.7 L726.5,371.3 L730.3,370.9 L732.3,376.9 L729.6,381.9 L727.3,395.7 L728.9,396.7 L728.9,399.0 L721.3,407.2 L708.9,404.9 L703.9,407.3 L698.5,404.8 L695.5,405.0 L687.0,414.8 L673.3,421.2 L657.9,421.3 L653.6,418.4 L652.9,415.3 L648.2,415.4 L644.3,412.3 L635.2,411.4 L626.6,415.4 L621.3,415.2 L614.2,411.4 L612.7,403.3 L598.2,399.2 L591.5,395.3 L585.7,402.3 L584.2,406.5 L587.0,412.1 L586.8,414.5 L585.0,417.5 L580.5,420.3 L571.7,417.1 L568.0,417.8 L561.8,416.2 L559.8,410.3 L552.1,409.1 L551.2,407.2 L549.0,407.9 L547.4,405.9 L546.1,407.5 L530.9,412.0 L527.8,413.6 L527.6,415.6 L523.5,417.3 L517.1,416.8 L515.2,419.3 L511.1,419.8 L506.7,413.7 L507.4,411.5 L503.5,413.7 L497.3,411.2 L496.7,406.2 L492.7,403.3 L491.5,397.2 L488.2,394.0 L481.8,395.4 L475.2,393.5 L475.3,391.1 L473.3,390.4 L474.2,388.2 L472.0,386.5 L465.7,390.4 L460.3,360.9 L454.6,350.6 L458.2,347.1 L448.7,347.7 L440.1,351.3 L437.7,348.8 L434.4,349.5 L434.8,346.7 L438.3,344.0 L435.4,344.0 L432.6,340.9 L430.8,342.3 L430.9,337.9 L429.3,338.7 L424.2,336.4 L426.3,332.8 L426.9,324.9 L423.2,324.9 L417.6,319.6 L412.3,319.8 L411.2,321.4 L394.9,317.2 L391.4,318.7 L388.2,316.4 L372.2,312.4 L368.9,309.5 L365.4,312.2 L367.8,314.9 L364.7,316.0 L367.9,321.5 L362.1,318.3 L358.9,320.0 L358.2,323.8 L350.6,324.0 L351.4,328.1 L355.6,334.9 L352.1,338.5 L348.6,338.4 L345.6,336.7 L344.5,333.8 L339.4,335.0 L339.7,333.6 L337.0,330.8 L336.2,325.6 L333.5,323.4 L330.1,323.6 L328.9,320.4 L325.7,318.8 L318.6,319.3 L315.7,311.5 L312.2,315.1 L313.3,309.2 L311.9,302.2 L308.0,299.0 L307.7,295.7 L301.7,293.9 L300.6,289.5 L294.8,290.6 L281.9,288.8 L277.7,294.8 L275.0,293.4 L274.8,285.3 L266.6,287.8 L263.7,289.9 L263.3,292.7 L259.1,293.8 L256.0,296.6 L256.7,299.9 L254.3,304.9 L258.7,309.4 L256.2,320.7 L253.9,318.9 L252.7,320.0 L254.3,326.0 L249.7,324.8 L248.6,326.5 L247.5,325.0 L240.3,323.4 L240.1,321.8 L238.9,323.5 L231.6,326.5 L227.6,326.6 L227.6,333.3 L224.4,338.4 L227.9,336.8 L220.5,342.5 L218.3,358.0 L209.4,359.2 L206.6,355.5 L207.3,348.2 L203.8,338.9 L206.4,337.0 L204.7,332.5 L203.7,330.3 L202.0,330.8 L201.6,328.3 L196.4,325.7 L197.6,324.1 L195.3,315.1 L189.4,307.8 L187.1,300.1 L184.8,296.9 L182.7,296.9 L183.6,283.3 L180.7,265.3 L183.4,266.0 L183.8,264.3 L184.6,267.7 L187.5,269.6 L194.1,267.1 L197.4,269.7 L198.6,261.9 L202.2,265.9 L203.2,264.5 L209.0,267.6 L210.5,265.7 L207.0,263.6 L208.4,263.3 L207.3,262.4 L204.7,261.5 L204.1,262.8 L202.2,262.5 L196.0,257.6 L193.1,257.7 L191.9,255.2 L188.2,254.5 L187.9,252.1 L180.7,251.1 L179.9,252.5 L178.4,251.1 L178.1,249.7 L178.9,249.2 L178.9,249.0 L178.0,249.9 L176.8,256.9 L182.6,263.1 L179.0,264.2 L175.0,258.4 L170.7,257.9 L167.2,254.6 L161.8,253.2 L161.2,249.3 L166.4,246.6 L164.6,238.2 L174.3,242.0 L176.7,240.3 L174.4,240.8 L169.5,237.3 L166.4,226.0 L167.9,223.8 L170.2,228.3 L176.2,227.8 L179.3,232.1 L181.2,231.8 L181.7,230.1 L183.6,231.1 L186.2,228.5 L188.7,234.4 L193.6,239.7 L198.4,235.4 L202.1,240.2 L202.9,242.7 L201.2,244.2 L203.4,247.1 L205.4,245.5 L206.2,247.4 L207.9,246.8 L211.7,241.6 L213.0,243.7 L218.8,243.3 L221.5,245.2 L222.8,243.1 L226.7,242.2 L228.5,234.8 L223.5,231.8 L223.1,227.8 L220.6,225.3 L225.2,219.4 L225.5,217.1 L222.6,212.2 L225.9,209.1 L227.9,209.9 L230.2,202.9 L225.0,196.2 L221.6,196.0 L220.8,193.8 L225.9,188.8 L227.1,185.7 L229.2,185.5 L230.9,189.9 L235.9,190.7 L237.2,188.0 L235.8,183.6 L238.0,182.7 L238.0,179.6 L240.9,175.8 L241.2,173.0 L248.7,168.7 L248.8,164.1 L244.9,161.2 L246.9,158.6 L244.6,153.0 L250.4,146.8 L249.8,145.5 L254.5,144.0 L255.5,140.3 L259.6,140.7 L267.1,134.1 L274.4,134.3 L277.9,131.6 L277.8,133.4 L282.9,135.4 L285.4,140.3 L286.3,136.9 L284.4,134.0 L284.9,131.0 L287.3,128.8 L284.1,126.3 L298.4,129.1 L315.4,129.1 L319.0,117.9 L324.5,117.2 L329.3,109.3 L335.5,105.9 L337.4,106.8 L345.7,96.3 L354.9,95.1 L357.2,90.6 L356.9,87.5 L359.3,85.1 L363.2,84.1 L363.1,82.6 L370.9,85.0 L373.5,84.2 L374.1,87.0 L376.3,85.5 L377.0,88.2 L380.2,88.0 L380.3,92.7 L379.0,93.1 L378.1,90.3 L376.8,92.2 L378.7,95.9 L374.7,97.2 L378.1,97.4 L382.1,105.0 L381.2,118.7 L381.8,124.2 L383.1,124.4 L382.6,131.1 L379.6,136.0 L376.0,138.2 L368.6,138.5 L362.6,135.2 L356.9,122.2 L357.0,118.5 L355.6,117.7 L354.8,111.1 L356.5,108.9 L354.7,104.8 L352.5,115.4 L350.8,115.1 L350.9,122.2 L345.3,124.7 L338.7,133.1 L340.2,146.2 L344.4,146.6 L346.0,144.7 L344.5,141.3 L345.8,137.0 L350.1,135.1 L353.4,149.4 L357.1,150.4 L362.0,142.4 L371.1,144.2 L376.4,143.7 L378.6,147.8 L378.6,150.3 L377.3,150.9 L378.1,153.6 L386.3,147.6 L386.9,143.2 L395.9,136.9 L396.8,131.2 L402.5,140.0 L400.0,147.2 L395.9,144.6 L391.4,145.4 L390.3,152.3 L391.5,154.8 L396.4,156.9 L401.6,152.7 L405.2,154.6 L406.5,152.6 L407.6,153.9 L421.1,155.9 L421.0,158.5 L423.0,158.2 L422.7,156.2 L429.8,156.5 L432.0,158.2 L429.2,157.3 L426.5,161.7 L423.2,161.4 L427.9,166.0 L432.1,164.1 L437.5,168.3 L446.7,168.5 L446.1,171.7 L443.4,173.8 L444.9,176.0 L447.6,173.1 L449.7,174.2 L452.8,172.7 L453.8,165.5 L457.7,164.7 L466.7,174.1 L467.6,178.2 L473.0,185.7 L475.1,193.6 L480.9,188.7 L478.9,187.5 L478.7,179.8 L477.3,177.8 L476.0,178.8 L483.3,167.8 L481.8,166.1 L482.9,163.4 L491.1,160.0 L500.7,148.8 L509.3,154.6 L510.0,156.1 L508.3,159.7 L501.6,167.6 L502.2,173.8 L493.7,192.8 L495.1,200.5 L490.2,206.9 L482.3,212.6 L480.2,212.2 L479.7,215.3 L475.7,215.5 L474.8,214.1 L476.6,213.2 L470.3,209.7 L470.0,212.1 L472.3,215.3 L479.9,220.5 L482.6,218.0 L489.9,215.8 L496.7,209.5 L497.8,202.3 L499.8,199.1 L502.3,198.8 L507.7,199.4 L508.8,205.7 L506.1,212.7 L507.7,215.7 L512.4,216.9 L507.6,213.5 L509.5,209.1 L511.0,208.8 L511.9,201.7 L506.9,196.1 L502.0,196.0 L498.7,193.4 L500.4,187.0 L506.2,180.0 L505.5,169.4 L509.1,166.0 L514.6,164.5 L516.6,157.3 L518.3,158.1 L517.6,163.8 L514.8,166.8 L512.6,173.4 L517.2,177.5 L519.6,177.9 L521.2,181.2 L523.4,181.8 L524.1,181.3 L522.4,180.8 L522.0,177.5 L517.1,172.5 L517.1,168.2 L520.3,167.9 L521.8,170.7 L524.1,170.7 L524.2,168.5 L522.3,167.7 L525.9,165.7 L529.8,166.9 L535.2,176.2 L540.1,177.4 L538.9,180.2 L536.1,181.7 L533.7,188.7 L533.3,190.9 L537.2,185.5 L534.5,193.2 L535.6,194.9 L539.2,190.6 L538.6,184.1 L541.4,178.2 L538.2,170.6 L534.7,167.1 L537.3,155.2 L552.0,157.1 L557.6,156.3 L553.2,160.6 L553.0,161.8 L555.3,164.8 L553.7,160.5 L559.6,157.5 L555.8,151.0 L557.3,149.7 L559.6,151.1 L555.9,147.1 L557.6,145.5 L558.6,147.2 L559.9,146.4 L561.7,144.0 L560.7,142.0 L562.5,142.8 L570.6,138.7 L582.0,136.2 L578.7,136.0 L579.9,133.9 L586.4,133.9 L587.8,134.7 L586.4,136.8 L588.9,135.6 L588.8,136.9 L595.0,133.1 L598.1,135.6 L597.4,138.3 L598.3,136.7 L598.2,134.4 L595.4,130.3 L603.1,130.8 L601.2,129.4 L601.3,124.4 L608.8,115.4 L614.3,119.0 L609.7,122.7 L618.4,124.1 L616.1,129.2 L619.7,128.7 L620.6,126.1 L628.4,125.1 L630.9,126.7 L631.3,128.7 L633.1,128.3 L633.9,132.1 L635.2,129.5 L637.7,133.7 L637.3,137.2 L633.8,134.6 L638.2,138.4 L636.9,143.7 L628.9,153.1 L624.8,160.8 L618.8,165.8 L615.8,172.1 L619.9,167.7 L624.0,166.8 L630.4,162.6 L633.1,159.3 L629.4,159.7 L630.7,156.3 L633.3,156.8 L634.7,155.6 L634.6,157.9 L637.2,158.8 L639.1,158.0 L639.5,156.0 L642.2,162.1 L642.1,168.0 L643.1,169.8 L644.3,169.8 L642.4,168.2 L643.4,161.8 L641.9,160.3 L647.2,156.9 L658.6,156.0 L658.1,159.5 L663.0,161.3 L671.3,159.8 L672.8,159.0 L671.9,157.9 L673.9,158.1 L674.4,155.1 L672.2,150.1 L675.1,148.1 L679.4,150.1 L681.0,148.3 L682.8,150.2 L683.3,147.4 L685.7,147.2 L691.4,149.3 L690.9,152.2 L693.7,153.3 L691.9,156.1 L695.1,156.0 L696.7,158.6 L695.6,160.1 L690.5,158.0 L691.1,159.2 L697.0,163.5 L697.2,161.4 L698.8,162.8 L697.2,164.5 L702.6,168.7 L709.0,170.3 L708.0,156.2 L713.7,159.4 L717.1,158.1 L720.2,153.5 L728.6,154.8 L726.8,149.8 L728.2,148.5 L730.6,149.5 L732.6,147.5 L728.0,144.4 L729.0,140.6 L726.2,142.7 L725.1,141.2 L725.5,138.8 L729.1,135.2 L726.4,132.9 L744.2,126.3 L744.7,127.1 L740.6,129.9 L740.5,132.5 L746.7,126.3 L747.2,131.0 L746.2,129.0 L744.3,129.2 L746.3,131.8 L744.5,133.3 L746.4,135.1 L748.0,132.3 L747.6,125.1 L754.7,121.6 L758.0,122.8 L756.7,126.9 L762.3,124.5 L763.1,128.2 L764.3,124.8 L766.7,124.1 L770.0,125.0 L769.4,126.2 L772.5,125.5 L781.2,112.8 L785.0,109.6 L790.2,107.9 L795.8,109.6 L798.8,113.5 L804.0,112.0 L810.2,115.1 L812.8,119.6 L811.5,114.9 L807.4,111.7 L807.0,108.2 L808.5,104.4 L818.7,94.6 L818.9,89.9 L824.0,91.3 L827.9,89.1 L831.3,89.9 L832.9,86.6 L831.0,83.2 L825.9,82.0 L824.7,83.1 L820.8,79.3 L828.9,71.8 L828.0,70.6 L833.0,62.6 L843.0,55.0 L848.9,52.7 L887.8,70.1 L889.5,78.4 L886.9,81.1 L881.6,82.9 L880.8,85.3 L882.7,82.7 L884.8,83.6 L881.0,86.8 L880.4,94.4 L881.6,87.1 L884.1,86.9 L884.8,88.4 L885.6,82.3 L890.7,83.3 L892.3,82.2 L891.2,80.7 L897.2,81.2 L899.4,83.4 L904.9,81.3 L909.4,82.1 L912.9,86.2 L906.3,93.1 L904.7,92.0 L904.0,93.4 L906.4,93.8 L907.3,109.2 L906.1,113.7 L907.7,117.5 L906.4,118.4 L908.0,119.0 L909.0,122.6 L909.9,134.1 L913.4,137.9 L904.6,139.3 L900.4,149.1 L902.3,156.6 L897.1,152.4 L896.5,160.3 L898.2,162.4 L895.0,162.9 L895.1,165.7 L892.8,166.4 L893.6,169.6 L897.3,173.1 L900.6,183.7 L903.0,186.9 L907.5,187.4 L906.5,184.7 L909.8,183.2 L911.9,188.1 L915.9,191.2 L919.2,190.3 L923.3,192.9 L922.9,196.3 L920.7,196.2 L919.8,192.4 L918.7,194.3 L919.9,199.6 L923.4,205.3 L931.0,208.4 L931.1,212.3 L927.5,216.2 L927.6,221.9 L929.9,225.8 L935.9,229.4 L933.2,230.8 L932.3,237.1 L930.2,237.6 L935.4,242.1 L938.2,248.0 L938.8,259.9 L934.4,258.8 L903.8,237.4 L891.3,222.3 L890.2,214.3 L886.4,210.8 L888.6,208.1 L887.7,205.6 L890.1,203.2 L883.6,170.5 L885.2,160.8 L883.7,160.7 L882.5,156.8 L880.8,156.9 L875.0,149.9 L874.7,147.2 L877.3,144.1 L872.1,146.4 L870.2,151.6 L877.7,159.1 L875.8,159.1 L874.7,161.2 L876.9,173.8 L875.9,177.0 L873.4,173.5 L872.0,176.3 L866.1,167.8 L865.0,171.9 L862.1,171.8 L857.0,181.5 L861.0,205.6 L862.7,208.5 L866.4,205.9 L869.1,207.1 L866.2,209.7 L865.5,212.4 L862.0,213.9 L861.9,218.1 L859.2,219.2 L856.3,224.1 L854.0,223.2 L857.5,217.9 L851.5,218.6 L848.5,222.3 L848.8,221.1 L843.1,223.1 L841.7,226.2 L843.3,226.9 L841.3,227.9 L842.2,229.4 L843.1,228.7 L842.9,230.4 L839.9,230.8 L837.7,234.5 L832.3,236.3 L832.1,240.3 L828.4,239.9 L816.5,251.0 L813.9,264.8 L815.2,270.2 L811.4,283.3 L811.1,293.7 L804.8,312.0 L805.9,314.0 L809.9,313.6 L814.7,310.3 L818.7,318.1 L820.9,316.5 L818.9,313.3 L821.2,310.7 L820.4,313.4 L823.9,313.2 L822.9,318.7 L826.4,315.9 L827.5,310.8 L828.5,315.7 L829.5,314.9 L828.9,311.0 L826.3,307.3 L830.4,306.1 L831.9,304.0 L846.4,307.0 L847.1,310.1 L844.8,310.7 L848.5,311.4 L850.2,315.4 L853.7,316.4 L856.5,332.1 L861.3,338.1 L867.7,353.7 L866.5,373.0 L867.7,387.8 L863.7,408.2 L863.1,419.0 L858.3,428.7 L853.5,434.3 L846.5,435.5 L844.5,431.4 L842.4,435.0 L841.9,432.8 L839.5,442.1 L836.2,443.3 L837.7,444.2 L837.3,446.7 Z M205.6,260.6 L205.7,260.5 L205.6,260.6 L205.6,260.6 Z M208.9,258.6 L208.9,258.6 L208.9,258.6 L208.9,258.6 Z M209.4,258.7 L209.9,259.1 L209.3,258.7 L209.4,258.7 Z M210.2,259.4 L210.7,259.6 L210.1,259.0 L210.2,259.4 Z M211.1,259.8 L211.2,259.9 L211.1,259.8 L211.1,259.8 Z M211.7,259.9 L211.5,259.8 L211.4,259.9 L211.7,259.9 Z M212.9,259.8 L212.8,259.8 L212.8,259.8 L212.9,259.8 Z M213.1,259.7 L213.1,259.7 L212.9,259.8 L213.1,259.7 Z M213.4,259.7 L214.6,260.9 L214.8,261.2 L214.0,259.7 L213.4,259.7 Z M214.9,261.6 L216.0,262.9 L216.1,263.0 L216.1,262.4 L214.9,261.6 Z M216.6,263.5 L216.6,263.2 L216.1,263.0 L216.6,263.5 Z M219.3,263.9 L219.5,263.6 L219.3,263.9 L219.3,263.9 Z M221.8,263.2 L221.8,263.1 L221.7,263.2 L221.8,263.2 Z M222.1,262.7 L222.0,262.7 L222.0,262.7 L222.1,262.7 Z M222.2,261.9 L222.1,261.9 L222.0,262.1 L222.2,261.9 Z M223.4,260.9 L223.6,260.7 L223.3,261.1 L223.4,260.9 Z M226.1,258.1 L226.2,259.0 L226.4,259.2 L226.1,258.1 Z M226.6,258.0 L226.6,258.0 L226.6,258.0 L226.6,258.0 Z M227.3,256.1 L227.5,256.6 L228.3,257.1 L227.3,256.1 Z M230.0,257.1 L229.9,257.0 L229.3,257.1 L230.0,257.1 Z M232.0,255.6 L231.9,255.7 L231.9,255.8 L232.0,255.6 Z M232.6,255.0 L233.1,254.8 L232.1,255.4 L232.6,255.0 Z M232.3,253.5 L231.9,253.0 L232.8,253.7 L232.3,253.5 Z M231.9,251.7 L231.7,252.1 L231.9,252.4 L231.9,251.7 Z M231.2,248.8 L231.2,248.8 L231.2,248.9 L231.2,248.8 Z M231.4,248.5 L231.4,248.5 L231.4,248.5 L231.4,248.5 Z M230.6,247.4 L230.7,247.5 L231.1,247.6 L230.6,247.4 Z M230.1,246.7 L230.0,247.0 L230.5,247.2 L230.1,246.7 Z M230.0,245.6 L230.0,245.6 L230.0,245.6 L230.0,245.6 Z M230.0,245.2 L230.0,245.3 L230.0,245.3 L230.0,245.2 Z M229.2,242.4 L229.2,242.5 L229.2,242.7 L229.2,242.4 Z M228.4,242.0 L227.9,241.8 L227.5,241.8 L228.4,242.0 Z M177.3,243.2 L177.7,244.0 L177.2,241.3 L177.3,243.2 Z M178.9,247.8 L178.7,247.2 L178.4,247.2 L178.9,247.8 Z M848.9,52.7 L853.0,49.7 L859.2,48.7 L858.9,47.5 L855.7,48.6 L859.7,46.6 L860.4,47.1 L869.3,40.7 L872.5,42.0 L873.3,40.0 L880.6,43.0 L884.3,41.9 L883.4,40.1 L885.9,40.9 L884.2,39.0 L881.6,40.2 L878.6,38.4 L876.4,39.8 L877.1,36.1 L878.6,34.3 L879.5,35.3 L880.8,35.5 L879.3,34.7 L880.6,32.1 L878.8,33.7 L881.8,29.2 L890.3,26.4 L892.4,23.3 L893.9,23.9 L894.4,27.3 L896.8,28.6 L893.8,31.3 L897.4,30.9 L896.5,34.3 L893.3,37.5 L896.4,35.9 L898.2,36.8 L898.0,38.4 L900.6,37.1 L901.8,41.7 L906.9,40.0 L905.0,41.9 L907.0,42.8 L906.9,44.3 L904.3,43.7 L905.4,46.1 L900.6,48.5 L898.4,51.7 L895.6,52.9 L890.5,52.2 L887.5,55.6 L886.4,61.7 L880.2,61.6 L877.2,58.4 L878.7,60.7 L876.4,61.0 L878.2,62.6 L877.3,63.9 L880.0,65.6 L884.5,65.5 L887.8,70.1 L848.9,52.7 Z M849.6,293.9 L851.4,297.1 L858.6,302.7 L864.2,312.0 L878.0,323.9 L893.4,334.3 L885.7,331.8 L880.7,336.1 L886.5,351.1 L896.3,356.5 L898.2,355.8 L901.2,358.8 L902.4,362.3 L898.2,358.3 L893.0,360.1 L894.8,369.1 L890.0,365.4 L882.7,350.2 L876.3,345.0 L873.0,336.8 L863.3,322.1 L857.6,319.4 L854.0,314.9 L848.4,304.4 L849.2,302.5 L851.2,302.2 L850.9,299.0 L845.5,294.9 L846.5,292.5 L849.6,293.9 Z M511.3,113.2 L491.6,113.3 L483.0,117.4 L482.4,115.9 L480.6,117.6 L479.4,116.6 L477.9,119.3 L474.3,119.8 L472.7,122.0 L472.0,120.6 L471.4,122.7 L468.0,124.3 L466.2,123.9 L463.5,119.8 L461.0,119.3 L462.5,114.5 L466.1,114.5 L470.9,111.6 L473.4,112.4 L473.0,110.2 L477.4,108.8 L476.9,106.0 L478.5,107.6 L480.9,105.7 L482.6,107.0 L489.0,104.2 L493.8,104.0 L495.2,105.3 L497.1,103.6 L501.0,106.6 L505.4,107.2 L516.5,104.7 L518.2,107.4 L517.2,110.7 L511.3,113.2 Z M462.5,120.0 L465.5,124.8 L462.1,127.8 L458.4,128.7 L454.0,134.0 L451.8,143.9 L452.9,149.8 L450.5,150.0 L449.2,147.1 L448.2,148.7 L441.4,139.2 L445.3,138.8 L444.7,135.2 L446.0,133.6 L441.6,130.8 L442.4,127.1 L444.9,124.9 L449.3,125.1 L452.6,122.5 L452.4,120.9 L455.6,121.3 L457.7,118.6 L462.5,120.0 Z M700.8,104.4 L709.1,106.8 L707.4,100.9 L712.0,101.6 L714.3,100.0 L720.5,100.2 L720.7,107.0 L718.1,107.8 L715.6,106.5 L713.6,102.6 L712.3,103.9 L714.0,106.9 L719.0,109.3 L718.4,111.8 L716.1,111.0 L712.8,115.3 L710.6,115.1 L711.0,119.0 L707.5,119.2 L702.2,116.6 L699.8,111.1 L700.8,110.3 L699.3,108.2 L700.8,104.4 Z M594.3,87.2 L593.6,91.2 L595.7,87.7 L598.8,91.1 L598.0,96.6 L596.6,97.0 L598.5,101.0 L595.0,103.0 L587.3,99.5 L585.8,95.1 L583.4,93.8 L588.2,86.8 L594.3,87.2 Z M216.7,118.1 L213.0,117.4 L213.0,119.3 L214.0,120.9 L217.3,119.7 L218.9,127.9 L217.8,130.2 L212.7,132.3 L205.4,114.1 L210.8,114.2 L212.9,116.9 L216.7,118.1 Z M590.8,72.3 L594.5,78.9 L592.9,80.7 L593.1,84.9 L585.3,87.7 L581.3,82.9 L585.4,78.0 L584.0,78.0 L584.5,76.7 L589.5,72.4 L590.8,72.3 Z M604.9,95.7 L604.3,102.4 L607.3,98.5 L610.7,102.3 L611.4,106.0 L610.1,108.0 L601.6,110.2 L597.5,112.8 L602.3,96.3 L603.8,97.4 L603.8,95.2 L604.9,95.7 Z M725.5,98.7 L728.2,95.7 L729.9,97.0 L735.5,93.4 L736.7,95.5 L735.6,99.1 L732.4,101.4 L724.6,101.8 L722.8,97.7 L725.5,98.7 Z M724.6,120.9 L728.9,121.9 L731.4,124.8 L722.5,127.9 L720.7,130.3 L721.0,123.2 L724.6,120.9 Z M825.3,36.1 L830.4,34.7 L830.3,42.1 L828.7,43.7 L823.1,41.2 L825.3,36.1 Z M509.5,44.0 L509.6,47.7 L502.5,47.0 L501.2,49.0 L498.6,47.9 L500.1,46.7 L498.3,45.9 L498.8,44.4 L502.6,44.1 L504.2,45.9 L507.0,43.3 L509.5,44.0 Z M419.8,146.9 L412.4,145.6 L415.4,140.3 L419.8,140.7 L419.8,146.9 Z M456.6,163.4 L455.5,164.8 L452.9,163.2 L453.3,161.6 L451.8,160.2 L453.0,155.4 L455.5,155.2 L456.6,163.4 Z M517.4,47.2 L519.4,50.5 L519.5,54.2 L515.8,53.5 L514.3,49.5 L517.4,47.2 Z M938.8,343.5 L934.5,351.8 L933.9,360.3 L933.3,347.2 L936.4,346.1 L937.6,341.8 L938.8,343.5 Z M527.5,58.8 L523.0,61.5 L520.7,59.8 L523.5,55.7 L527.0,57.1 L527.5,58.8 Z M828.6,48.5 L825.6,47.5 L823.1,41.2 L828.7,43.7 L828.6,48.5 Z" fill-rule="evenodd"/></clipPath>
  </defs>
  <path d="M837.3,446.7 L833.8,443.6 L837.6,439.7 L836.7,434.4 L833.5,427.7 L828.0,421.1 L830.5,418.2 L831.7,413.5 L840.5,412.7 L841.2,411.1 L839.9,407.4 L841.0,405.5 L840.6,397.9 L837.3,386.9 L838.9,381.0 L834.6,375.9 L826.8,382.7 L824.4,388.6 L814.6,393.4 L806.7,383.6 L804.3,384.3 L797.7,381.6 L795.0,382.9 L791.7,381.7 L787.4,384.0 L783.6,382.9 L782.1,378.8 L780.0,378.1 L765.8,360.8 L759.0,355.7 L755.0,355.4 L753.7,356.7 L745.0,355.2 L730.1,363.0 L726.2,369.7 L726.5,371.3 L730.3,370.9 L732.3,376.9 L729.6,381.9 L727.3,395.7 L728.9,396.7 L728.9,399.0 L721.3,407.2 L708.9,404.9 L703.9,407.3 L698.5,404.8 L695.5,405.0 L687.0,414.8 L673.3,421.2 L657.9,421.3 L653.6,418.4 L652.9,415.3 L648.2,415.4 L644.3,412.3 L635.2,411.4 L626.6,415.4 L621.3,415.2 L614.2,411.4 L612.7,403.3 L598.2,399.2 L591.5,395.3 L585.7,402.3 L584.2,406.5 L587.0,412.1 L586.8,414.5 L585.0,417.5 L580.5,420.3 L571.7,417.1 L568.0,417.8 L561.8,416.2 L559.8,410.3 L552.1,409.1 L551.2,407.2 L549.0,407.9 L547.4,405.9 L546.1,407.5 L530.9,412.0 L527.8,413.6 L527.6,415.6 L523.5,417.3 L517.1,416.8 L515.2,419.3 L511.1,419.8 L506.7,413.7 L507.4,411.5 L503.5,413.7 L497.3,411.2 L496.7,406.2 L492.7,403.3 L491.5,397.2 L488.2,394.0 L481.8,395.4 L475.2,393.5 L475.3,391.1 L473.3,390.4 L474.2,388.2 L472.0,386.5 L465.7,390.4 L460.3,360.9 L454.6,350.6 L458.2,347.1 L448.7,347.7 L440.1,351.3 L437.7,348.8 L434.4,349.5 L434.8,346.7 L438.3,344.0 L435.4,344.0 L432.6,340.9 L430.8,342.3 L430.9,337.9 L429.3,338.7 L424.2,336.4 L426.3,332.8 L426.9,324.9 L423.2,324.9 L417.6,319.6 L412.3,319.8 L411.2,321.4 L394.9,317.2 L391.4,318.7 L388.2,316.4 L372.2,312.4 L368.9,309.5 L365.4,312.2 L367.8,314.9 L364.7,316.0 L367.9,321.5 L362.1,318.3 L358.9,320.0 L358.2,323.8 L350.6,324.0 L351.4,328.1 L355.6,334.9 L352.1,338.5 L348.6,338.4 L345.6,336.7 L344.5,333.8 L339.4,335.0 L339.7,333.6 L337.0,330.8 L336.2,325.6 L333.5,323.4 L330.1,323.6 L328.9,320.4 L325.7,318.8 L318.6,319.3 L315.7,311.5 L312.2,315.1 L313.3,309.2 L311.9,302.2 L308.0,299.0 L307.7,295.7 L301.7,293.9 L300.6,289.5 L294.8,290.6 L281.9,288.8 L277.7,294.8 L275.0,293.4 L274.8,285.3 L266.6,287.8 L263.7,289.9 L263.3,292.7 L259.1,293.8 L256.0,296.6 L256.7,299.9 L254.3,304.9 L258.7,309.4 L256.2,320.7 L253.9,318.9 L252.7,320.0 L254.3,326.0 L249.7,324.8 L248.6,326.5 L247.5,325.0 L240.3,323.4 L240.1,321.8 L238.9,323.5 L231.6,326.5 L227.6,326.6 L227.6,333.3 L224.4,338.4 L227.9,336.8 L220.5,342.5 L218.3,358.0 L209.4,359.2 L206.6,355.5 L207.3,348.2 L203.8,338.9 L206.4,337.0 L204.7,332.5 L203.7,330.3 L202.0,330.8 L201.6,328.3 L196.4,325.7 L197.6,324.1 L195.3,315.1 L189.4,307.8 L187.1,300.1 L184.8,296.9 L182.7,296.9 L183.6,283.3 L180.7,265.3 L183.4,266.0 L183.8,264.3 L184.6,267.7 L187.5,269.6 L194.1,267.1 L197.4,269.7 L198.6,261.9 L202.2,265.9 L203.2,264.5 L209.0,267.6 L210.5,265.7 L207.0,263.6 L208.4,263.3 L207.3,262.4 L204.7,261.5 L204.1,262.8 L202.2,262.5 L196.0,257.6 L193.1,257.7 L191.9,255.2 L188.2,254.5 L187.9,252.1 L180.7,251.1 L179.9,252.5 L178.4,251.1 L178.1,249.7 L178.9,249.2 L178.9,249.0 L178.0,249.9 L176.8,256.9 L182.6,263.1 L179.0,264.2 L175.0,258.4 L170.7,257.9 L167.2,254.6 L161.8,253.2 L161.2,249.3 L166.4,246.6 L164.6,238.2 L174.3,242.0 L176.7,240.3 L174.4,240.8 L169.5,237.3 L166.4,226.0 L167.9,223.8 L170.2,228.3 L176.2,227.8 L179.3,232.1 L181.2,231.8 L181.7,230.1 L183.6,231.1 L186.2,228.5 L188.7,234.4 L193.6,239.7 L198.4,235.4 L202.1,240.2 L202.9,242.7 L201.2,244.2 L203.4,247.1 L205.4,245.5 L206.2,247.4 L207.9,246.8 L211.7,241.6 L213.0,243.7 L218.8,243.3 L221.5,245.2 L222.8,243.1 L226.7,242.2 L228.5,234.8 L223.5,231.8 L223.1,227.8 L220.6,225.3 L225.2,219.4 L225.5,217.1 L222.6,212.2 L225.9,209.1 L227.9,209.9 L230.2,202.9 L225.0,196.2 L221.6,196.0 L220.8,193.8 L225.9,188.8 L227.1,185.7 L229.2,185.5 L230.9,189.9 L235.9,190.7 L237.2,188.0 L235.8,183.6 L238.0,182.7 L238.0,179.6 L240.9,175.8 L241.2,173.0 L248.7,168.7 L248.8,164.1 L244.9,161.2 L246.9,158.6 L244.6,153.0 L250.4,146.8 L249.8,145.5 L254.5,144.0 L255.5,140.3 L259.6,140.7 L267.1,134.1 L274.4,134.3 L277.9,131.6 L277.8,133.4 L282.9,135.4 L285.4,140.3 L286.3,136.9 L284.4,134.0 L284.9,131.0 L287.3,128.8 L284.1,126.3 L298.4,129.1 L315.4,129.1 L319.0,117.9 L324.5,117.2 L329.3,109.3 L335.5,105.9 L337.4,106.8 L345.7,96.3 L354.9,95.1 L357.2,90.6 L356.9,87.5 L359.3,85.1 L363.2,84.1 L363.1,82.6 L370.9,85.0 L373.5,84.2 L374.1,87.0 L376.3,85.5 L377.0,88.2 L380.2,88.0 L380.3,92.7 L379.0,93.1 L378.1,90.3 L376.8,92.2 L378.7,95.9 L374.7,97.2 L378.1,97.4 L382.1,105.0 L381.2,118.7 L381.8,124.2 L383.1,124.4 L382.6,131.1 L379.6,136.0 L376.0,138.2 L368.6,138.5 L362.6,135.2 L356.9,122.2 L357.0,118.5 L355.6,117.7 L354.8,111.1 L356.5,108.9 L354.7,104.8 L352.5,115.4 L350.8,115.1 L350.9,122.2 L345.3,124.7 L338.7,133.1 L340.2,146.2 L344.4,146.6 L346.0,144.7 L344.5,141.3 L345.8,137.0 L350.1,135.1 L353.4,149.4 L357.1,150.4 L362.0,142.4 L371.1,144.2 L376.4,143.7 L378.6,147.8 L378.6,150.3 L377.3,150.9 L378.1,153.6 L386.3,147.6 L386.9,143.2 L395.9,136.9 L396.8,131.2 L402.5,140.0 L400.0,147.2 L395.9,144.6 L391.4,145.4 L390.3,152.3 L391.5,154.8 L396.4,156.9 L401.6,152.7 L405.2,154.6 L406.5,152.6 L407.6,153.9 L421.1,155.9 L421.0,158.5 L423.0,158.2 L422.7,156.2 L429.8,156.5 L432.0,158.2 L429.2,157.3 L426.5,161.7 L423.2,161.4 L427.9,166.0 L432.1,164.1 L437.5,168.3 L446.7,168.5 L446.1,171.7 L443.4,173.8 L444.9,176.0 L447.6,173.1 L449.7,174.2 L452.8,172.7 L453.8,165.5 L457.7,164.7 L466.7,174.1 L467.6,178.2 L473.0,185.7 L475.1,193.6 L480.9,188.7 L478.9,187.5 L478.7,179.8 L477.3,177.8 L476.0,178.8 L483.3,167.8 L481.8,166.1 L482.9,163.4 L491.1,160.0 L500.7,148.8 L509.3,154.6 L510.0,156.1 L508.3,159.7 L501.6,167.6 L502.2,173.8 L493.7,192.8 L495.1,200.5 L490.2,206.9 L482.3,212.6 L480.2,212.2 L479.7,215.3 L475.7,215.5 L474.8,214.1 L476.6,213.2 L470.3,209.7 L470.0,212.1 L472.3,215.3 L479.9,220.5 L482.6,218.0 L489.9,215.8 L496.7,209.5 L497.8,202.3 L499.8,199.1 L502.3,198.8 L507.7,199.4 L508.8,205.7 L506.1,212.7 L507.7,215.7 L512.4,216.9 L507.6,213.5 L509.5,209.1 L511.0,208.8 L511.9,201.7 L506.9,196.1 L502.0,196.0 L498.7,193.4 L500.4,187.0 L506.2,180.0 L505.5,169.4 L509.1,166.0 L514.6,164.5 L516.6,157.3 L518.3,158.1 L517.6,163.8 L514.8,166.8 L512.6,173.4 L517.2,177.5 L519.6,177.9 L521.2,181.2 L523.4,181.8 L524.1,181.3 L522.4,180.8 L522.0,177.5 L517.1,172.5 L517.1,168.2 L520.3,167.9 L521.8,170.7 L524.1,170.7 L524.2,168.5 L522.3,167.7 L525.9,165.7 L529.8,166.9 L535.2,176.2 L540.1,177.4 L538.9,180.2 L536.1,181.7 L533.7,188.7 L533.3,190.9 L537.2,185.5 L534.5,193.2 L535.6,194.9 L539.2,190.6 L538.6,184.1 L541.4,178.2 L538.2,170.6 L534.7,167.1 L537.3,155.2 L552.0,157.1 L557.6,156.3 L553.2,160.6 L553.0,161.8 L555.3,164.8 L553.7,160.5 L559.6,157.5 L555.8,151.0 L557.3,149.7 L559.6,151.1 L555.9,147.1 L557.6,145.5 L558.6,147.2 L559.9,146.4 L561.7,144.0 L560.7,142.0 L562.5,142.8 L570.6,138.7 L582.0,136.2 L578.7,136.0 L579.9,133.9 L586.4,133.9 L587.8,134.7 L586.4,136.8 L588.9,135.6 L588.8,136.9 L595.0,133.1 L598.1,135.6 L597.4,138.3 L598.3,136.7 L598.2,134.4 L595.4,130.3 L603.1,130.8 L601.2,129.4 L601.3,124.4 L608.8,115.4 L614.3,119.0 L609.7,122.7 L618.4,124.1 L616.1,129.2 L619.7,128.7 L620.6,126.1 L628.4,125.1 L630.9,126.7 L631.3,128.7 L633.1,128.3 L633.9,132.1 L635.2,129.5 L637.7,133.7 L637.3,137.2 L633.8,134.6 L638.2,138.4 L636.9,143.7 L628.9,153.1 L624.8,160.8 L618.8,165.8 L615.8,172.1 L619.9,167.7 L624.0,166.8 L630.4,162.6 L633.1,159.3 L629.4,159.7 L630.7,156.3 L633.3,156.8 L634.7,155.6 L634.6,157.9 L637.2,158.8 L639.1,158.0 L639.5,156.0 L642.2,162.1 L642.1,168.0 L643.1,169.8 L644.3,169.8 L642.4,168.2 L643.4,161.8 L641.9,160.3 L647.2,156.9 L658.6,156.0 L658.1,159.5 L663.0,161.3 L671.3,159.8 L672.8,159.0 L671.9,157.9 L673.9,158.1 L674.4,155.1 L672.2,150.1 L675.1,148.1 L679.4,150.1 L681.0,148.3 L682.8,150.2 L683.3,147.4 L685.7,147.2 L691.4,149.3 L690.9,152.2 L693.7,153.3 L691.9,156.1 L695.1,156.0 L696.7,158.6 L695.6,160.1 L690.5,158.0 L691.1,159.2 L697.0,163.5 L697.2,161.4 L698.8,162.8 L697.2,164.5 L702.6,168.7 L709.0,170.3 L708.0,156.2 L713.7,159.4 L717.1,158.1 L720.2,153.5 L728.6,154.8 L726.8,149.8 L728.2,148.5 L730.6,149.5 L732.6,147.5 L728.0,144.4 L729.0,140.6 L726.2,142.7 L725.1,141.2 L725.5,138.8 L729.1,135.2 L726.4,132.9 L744.2,126.3 L744.7,127.1 L740.6,129.9 L740.5,132.5 L746.7,126.3 L747.2,131.0 L746.2,129.0 L744.3,129.2 L746.3,131.8 L744.5,133.3 L746.4,135.1 L748.0,132.3 L747.6,125.1 L754.7,121.6 L758.0,122.8 L756.7,126.9 L762.3,124.5 L763.1,128.2 L764.3,124.8 L766.7,124.1 L770.0,125.0 L769.4,126.2 L772.5,125.5 L781.2,112.8 L785.0,109.6 L790.2,107.9 L795.8,109.6 L798.8,113.5 L804.0,112.0 L810.2,115.1 L812.8,119.6 L811.5,114.9 L807.4,111.7 L807.0,108.2 L808.5,104.4 L818.7,94.6 L818.9,89.9 L824.0,91.3 L827.9,89.1 L831.3,89.9 L832.9,86.6 L831.0,83.2 L825.9,82.0 L824.7,83.1 L820.8,79.3 L828.9,71.8 L828.0,70.6 L833.0,62.6 L843.0,55.0 L848.9,52.7 L887.8,70.1 L889.5,78.4 L886.9,81.1 L881.6,82.9 L880.8,85.3 L882.7,82.7 L884.8,83.6 L881.0,86.8 L880.4,94.4 L881.6,87.1 L884.1,86.9 L884.8,88.4 L885.6,82.3 L890.7,83.3 L892.3,82.2 L891.2,80.7 L897.2,81.2 L899.4,83.4 L904.9,81.3 L909.4,82.1 L912.9,86.2 L906.3,93.1 L904.7,92.0 L904.0,93.4 L906.4,93.8 L907.3,109.2 L906.1,113.7 L907.7,117.5 L906.4,118.4 L908.0,119.0 L909.0,122.6 L909.9,134.1 L913.4,137.9 L904.6,139.3 L900.4,149.1 L902.3,156.6 L897.1,152.4 L896.5,160.3 L898.2,162.4 L895.0,162.9 L895.1,165.7 L892.8,166.4 L893.6,169.6 L897.3,173.1 L900.6,183.7 L903.0,186.9 L907.5,187.4 L906.5,184.7 L909.8,183.2 L911.9,188.1 L915.9,191.2 L919.2,190.3 L923.3,192.9 L922.9,196.3 L920.7,196.2 L919.8,192.4 L918.7,194.3 L919.9,199.6 L923.4,205.3 L931.0,208.4 L931.1,212.3 L927.5,216.2 L927.6,221.9 L929.9,225.8 L935.9,229.4 L933.2,230.8 L932.3,237.1 L930.2,237.6 L935.4,242.1 L938.2,248.0 L938.8,259.9 L934.4,258.8 L903.8,237.4 L891.3,222.3 L890.2,214.3 L886.4,210.8 L888.6,208.1 L887.7,205.6 L890.1,203.2 L883.6,170.5 L885.2,160.8 L883.7,160.7 L882.5,156.8 L880.8,156.9 L875.0,149.9 L874.7,147.2 L877.3,144.1 L872.1,146.4 L870.2,151.6 L877.7,159.1 L875.8,159.1 L874.7,161.2 L876.9,173.8 L875.9,177.0 L873.4,173.5 L872.0,176.3 L866.1,167.8 L865.0,171.9 L862.1,171.8 L857.0,181.5 L861.0,205.6 L862.7,208.5 L866.4,205.9 L869.1,207.1 L866.2,209.7 L865.5,212.4 L862.0,213.9 L861.9,218.1 L859.2,219.2 L856.3,224.1 L854.0,223.2 L857.5,217.9 L851.5,218.6 L848.5,222.3 L848.8,221.1 L843.1,223.1 L841.7,226.2 L843.3,226.9 L841.3,227.9 L842.2,229.4 L843.1,228.7 L842.9,230.4 L839.9,230.8 L837.7,234.5 L832.3,236.3 L832.1,240.3 L828.4,239.9 L816.5,251.0 L813.9,264.8 L815.2,270.2 L811.4,283.3 L811.1,293.7 L804.8,312.0 L805.9,314.0 L809.9,313.6 L814.7,310.3 L818.7,318.1 L820.9,316.5 L818.9,313.3 L821.2,310.7 L820.4,313.4 L823.9,313.2 L822.9,318.7 L826.4,315.9 L827.5,310.8 L828.5,315.7 L829.5,314.9 L828.9,311.0 L826.3,307.3 L830.4,306.1 L831.9,304.0 L846.4,307.0 L847.1,310.1 L844.8,310.7 L848.5,311.4 L850.2,315.4 L853.7,316.4 L856.5,332.1 L861.3,338.1 L867.7,353.7 L866.5,373.0 L867.7,387.8 L863.7,408.2 L863.1,419.0 L858.3,428.7 L853.5,434.3 L846.5,435.5 L844.5,431.4 L842.4,435.0 L841.9,432.8 L839.5,442.1 L836.2,443.3 L837.7,444.2 L837.3,446.7 Z M205.6,260.6 L205.7,260.5 L205.6,260.6 L205.6,260.6 Z M208.9,258.6 L208.9,258.6 L208.9,258.6 L208.9,258.6 Z M209.4,258.7 L209.9,259.1 L209.3,258.7 L209.4,258.7 Z M210.2,259.4 L210.7,259.6 L210.1,259.0 L210.2,259.4 Z M211.1,259.8 L211.2,259.9 L211.1,259.8 L211.1,259.8 Z M211.7,259.9 L211.5,259.8 L211.4,259.9 L211.7,259.9 Z M212.9,259.8 L212.8,259.8 L212.8,259.8 L212.9,259.8 Z M213.1,259.7 L213.1,259.7 L212.9,259.8 L213.1,259.7 Z M213.4,259.7 L214.6,260.9 L214.8,261.2 L214.0,259.7 L213.4,259.7 Z M214.9,261.6 L216.0,262.9 L216.1,263.0 L216.1,262.4 L214.9,261.6 Z M216.6,263.5 L216.6,263.2 L216.1,263.0 L216.6,263.5 Z M219.3,263.9 L219.5,263.6 L219.3,263.9 L219.3,263.9 Z M221.8,263.2 L221.8,263.1 L221.7,263.2 L221.8,263.2 Z M222.1,262.7 L222.0,262.7 L222.0,262.7 L222.1,262.7 Z M222.2,261.9 L222.1,261.9 L222.0,262.1 L222.2,261.9 Z M223.4,260.9 L223.6,260.7 L223.3,261.1 L223.4,260.9 Z M226.1,258.1 L226.2,259.0 L226.4,259.2 L226.1,258.1 Z M226.6,258.0 L226.6,258.0 L226.6,258.0 L226.6,258.0 Z M227.3,256.1 L227.5,256.6 L228.3,257.1 L227.3,256.1 Z M230.0,257.1 L229.9,257.0 L229.3,257.1 L230.0,257.1 Z M232.0,255.6 L231.9,255.7 L231.9,255.8 L232.0,255.6 Z M232.6,255.0 L233.1,254.8 L232.1,255.4 L232.6,255.0 Z M232.3,253.5 L231.9,253.0 L232.8,253.7 L232.3,253.5 Z M231.9,251.7 L231.7,252.1 L231.9,252.4 L231.9,251.7 Z M231.2,248.8 L231.2,248.8 L231.2,248.9 L231.2,248.8 Z M231.4,248.5 L231.4,248.5 L231.4,248.5 L231.4,248.5 Z M230.6,247.4 L230.7,247.5 L231.1,247.6 L230.6,247.4 Z M230.1,246.7 L230.0,247.0 L230.5,247.2 L230.1,246.7 Z M230.0,245.6 L230.0,245.6 L230.0,245.6 L230.0,245.6 Z M230.0,245.2 L230.0,245.3 L230.0,245.3 L230.0,245.2 Z M229.2,242.4 L229.2,242.5 L229.2,242.7 L229.2,242.4 Z M228.4,242.0 L227.9,241.8 L227.5,241.8 L228.4,242.0 Z M177.3,243.2 L177.7,244.0 L177.2,241.3 L177.3,243.2 Z M178.9,247.8 L178.7,247.2 L178.4,247.2 L178.9,247.8 Z M848.9,52.7 L853.0,49.7 L859.2,48.7 L858.9,47.5 L855.7,48.6 L859.7,46.6 L860.4,47.1 L869.3,40.7 L872.5,42.0 L873.3,40.0 L880.6,43.0 L884.3,41.9 L883.4,40.1 L885.9,40.9 L884.2,39.0 L881.6,40.2 L878.6,38.4 L876.4,39.8 L877.1,36.1 L878.6,34.3 L879.5,35.3 L880.8,35.5 L879.3,34.7 L880.6,32.1 L878.8,33.7 L881.8,29.2 L890.3,26.4 L892.4,23.3 L893.9,23.9 L894.4,27.3 L896.8,28.6 L893.8,31.3 L897.4,30.9 L896.5,34.3 L893.3,37.5 L896.4,35.9 L898.2,36.8 L898.0,38.4 L900.6,37.1 L901.8,41.7 L906.9,40.0 L905.0,41.9 L907.0,42.8 L906.9,44.3 L904.3,43.7 L905.4,46.1 L900.6,48.5 L898.4,51.7 L895.6,52.9 L890.5,52.2 L887.5,55.6 L886.4,61.7 L880.2,61.6 L877.2,58.4 L878.7,60.7 L876.4,61.0 L878.2,62.6 L877.3,63.9 L880.0,65.6 L884.5,65.5 L887.8,70.1 L848.9,52.7 Z M849.6,293.9 L851.4,297.1 L858.6,302.7 L864.2,312.0 L878.0,323.9 L893.4,334.3 L885.7,331.8 L880.7,336.1 L886.5,351.1 L896.3,356.5 L898.2,355.8 L901.2,358.8 L902.4,362.3 L898.2,358.3 L893.0,360.1 L894.8,369.1 L890.0,365.4 L882.7,350.2 L876.3,345.0 L873.0,336.8 L863.3,322.1 L857.6,319.4 L854.0,314.9 L848.4,304.4 L849.2,302.5 L851.2,302.2 L850.9,299.0 L845.5,294.9 L846.5,292.5 L849.6,293.9 Z M511.3,113.2 L491.6,113.3 L483.0,117.4 L482.4,115.9 L480.6,117.6 L479.4,116.6 L477.9,119.3 L474.3,119.8 L472.7,122.0 L472.0,120.6 L471.4,122.7 L468.0,124.3 L466.2,123.9 L463.5,119.8 L461.0,119.3 L462.5,114.5 L466.1,114.5 L470.9,111.6 L473.4,112.4 L473.0,110.2 L477.4,108.8 L476.9,106.0 L478.5,107.6 L480.9,105.7 L482.6,107.0 L489.0,104.2 L493.8,104.0 L495.2,105.3 L497.1,103.6 L501.0,106.6 L505.4,107.2 L516.5,104.7 L518.2,107.4 L517.2,110.7 L511.3,113.2 Z M462.5,120.0 L465.5,124.8 L462.1,127.8 L458.4,128.7 L454.0,134.0 L451.8,143.9 L452.9,149.8 L450.5,150.0 L449.2,147.1 L448.2,148.7 L441.4,139.2 L445.3,138.8 L444.7,135.2 L446.0,133.6 L441.6,130.8 L442.4,127.1 L444.9,124.9 L449.3,125.1 L452.6,122.5 L452.4,120.9 L455.6,121.3 L457.7,118.6 L462.5,120.0 Z M700.8,104.4 L709.1,106.8 L707.4,100.9 L712.0,101.6 L714.3,100.0 L720.5,100.2 L720.7,107.0 L718.1,107.8 L715.6,106.5 L713.6,102.6 L712.3,103.9 L714.0,106.9 L719.0,109.3 L718.4,111.8 L716.1,111.0 L712.8,115.3 L710.6,115.1 L711.0,119.0 L707.5,119.2 L702.2,116.6 L699.8,111.1 L700.8,110.3 L699.3,108.2 L700.8,104.4 Z M594.3,87.2 L593.6,91.2 L595.7,87.7 L598.8,91.1 L598.0,96.6 L596.6,97.0 L598.5,101.0 L595.0,103.0 L587.3,99.5 L585.8,95.1 L583.4,93.8 L588.2,86.8 L594.3,87.2 Z M216.7,118.1 L213.0,117.4 L213.0,119.3 L214.0,120.9 L217.3,119.7 L218.9,127.9 L217.8,130.2 L212.7,132.3 L205.4,114.1 L210.8,114.2 L212.9,116.9 L216.7,118.1 Z M590.8,72.3 L594.5,78.9 L592.9,80.7 L593.1,84.9 L585.3,87.7 L581.3,82.9 L585.4,78.0 L584.0,78.0 L584.5,76.7 L589.5,72.4 L590.8,72.3 Z M604.9,95.7 L604.3,102.4 L607.3,98.5 L610.7,102.3 L611.4,106.0 L610.1,108.0 L601.6,110.2 L597.5,112.8 L602.3,96.3 L603.8,97.4 L603.8,95.2 L604.9,95.7 Z M725.5,98.7 L728.2,95.7 L729.9,97.0 L735.5,93.4 L736.7,95.5 L735.6,99.1 L732.4,101.4 L724.6,101.8 L722.8,97.7 L725.5,98.7 Z M724.6,120.9 L728.9,121.9 L731.4,124.8 L722.5,127.9 L720.7,130.3 L721.0,123.2 L724.6,120.9 Z M825.3,36.1 L830.4,34.7 L830.3,42.1 L828.7,43.7 L823.1,41.2 L825.3,36.1 Z M509.5,44.0 L509.6,47.7 L502.5,47.0 L501.2,49.0 L498.6,47.9 L500.1,46.7 L498.3,45.9 L498.8,44.4 L502.6,44.1 L504.2,45.9 L507.0,43.3 L509.5,44.0 Z M419.8,146.9 L412.4,145.6 L415.4,140.3 L419.8,140.7 L419.8,146.9 Z M456.6,163.4 L455.5,164.8 L452.9,163.2 L453.3,161.6 L451.8,160.2 L453.0,155.4 L455.5,155.2 L456.6,163.4 Z M517.4,47.2 L519.4,50.5 L519.5,54.2 L515.8,53.5 L514.3,49.5 L517.4,47.2 Z M938.8,343.5 L934.5,351.8 L933.9,360.3 L933.3,347.2 L936.4,346.1 L937.6,341.8 L938.8,343.5 Z M527.5,58.8 L523.0,61.5 L520.7,59.8 L523.5,55.7 L527.0,57.1 L527.5,58.8 Z M828.6,48.5 L825.6,47.5 L823.1,41.2 L828.7,43.7 L828.6,48.5 Z" fill="url(#mapFill)" fill-rule="evenodd" stroke="#5b8ccc" stroke-width="2.2" stroke-linejoin="round" filter="url(#shadow)"/>
  <rect width="100%" height="100%" fill="url(#dots)" clip-path="url(#countryClip)" opacity="0.48"/>
  <path d="M837.3,446.7 L833.8,443.6 L837.6,439.7 L836.7,434.4 L833.5,427.7 L828.0,421.1 L830.5,418.2 L831.7,413.5 L840.5,412.7 L841.2,411.1 L839.9,407.4 L841.0,405.5 L840.6,397.9 L837.3,386.9 L838.9,381.0 L834.6,375.9 L826.8,382.7 L824.4,388.6 L814.6,393.4 L806.7,383.6 L804.3,384.3 L797.7,381.6 L795.0,382.9 L791.7,381.7 L787.4,384.0 L783.6,382.9 L782.1,378.8 L780.0,378.1 L765.8,360.8 L759.0,355.7 L755.0,355.4 L753.7,356.7 L745.0,355.2 L730.1,363.0 L726.2,369.7 L726.5,371.3 L730.3,370.9 L732.3,376.9 L729.6,381.9 L727.3,395.7 L728.9,396.7 L728.9,399.0 L721.3,407.2 L708.9,404.9 L703.9,407.3 L698.5,404.8 L695.5,405.0 L687.0,414.8 L673.3,421.2 L657.9,421.3 L653.6,418.4 L652.9,415.3 L648.2,415.4 L644.3,412.3 L635.2,411.4 L626.6,415.4 L621.3,415.2 L614.2,411.4 L612.7,403.3 L598.2,399.2 L591.5,395.3 L585.7,402.3 L584.2,406.5 L587.0,412.1 L586.8,414.5 L585.0,417.5 L580.5,420.3 L571.7,417.1 L568.0,417.8 L561.8,416.2 L559.8,410.3 L552.1,409.1 L551.2,407.2 L549.0,407.9 L547.4,405.9 L546.1,407.5 L530.9,412.0 L527.8,413.6 L527.6,415.6 L523.5,417.3 L517.1,416.8 L515.2,419.3 L511.1,419.8 L506.7,413.7 L507.4,411.5 L503.5,413.7 L497.3,411.2 L496.7,406.2 L492.7,403.3 L491.5,397.2 L488.2,394.0 L481.8,395.4 L475.2,393.5 L475.3,391.1 L473.3,390.4 L474.2,388.2 L472.0,386.5 L465.7,390.4 L460.3,360.9 L454.6,350.6 L458.2,347.1 L448.7,347.7 L440.1,351.3 L437.7,348.8 L434.4,349.5 L434.8,346.7 L438.3,344.0 L435.4,344.0 L432.6,340.9 L430.8,342.3 L430.9,337.9 L429.3,338.7 L424.2,336.4 L426.3,332.8 L426.9,324.9 L423.2,324.9 L417.6,319.6 L412.3,319.8 L411.2,321.4 L394.9,317.2 L391.4,318.7 L388.2,316.4 L372.2,312.4 L368.9,309.5 L365.4,312.2 L367.8,314.9 L364.7,316.0 L367.9,321.5 L362.1,318.3 L358.9,320.0 L358.2,323.8 L350.6,324.0 L351.4,328.1 L355.6,334.9 L352.1,338.5 L348.6,338.4 L345.6,336.7 L344.5,333.8 L339.4,335.0 L339.7,333.6 L337.0,330.8 L336.2,325.6 L333.5,323.4 L330.1,323.6 L328.9,320.4 L325.7,318.8 L318.6,319.3 L315.7,311.5 L312.2,315.1 L313.3,309.2 L311.9,302.2 L308.0,299.0 L307.7,295.7 L301.7,293.9 L300.6,289.5 L294.8,290.6 L281.9,288.8 L277.7,294.8 L275.0,293.4 L274.8,285.3 L266.6,287.8 L263.7,289.9 L263.3,292.7 L259.1,293.8 L256.0,296.6 L256.7,299.9 L254.3,304.9 L258.7,309.4 L256.2,320.7 L253.9,318.9 L252.7,320.0 L254.3,326.0 L249.7,324.8 L248.6,326.5 L247.5,325.0 L240.3,323.4 L240.1,321.8 L238.9,323.5 L231.6,326.5 L227.6,326.6 L227.6,333.3 L224.4,338.4 L227.9,336.8 L220.5,342.5 L218.3,358.0 L209.4,359.2 L206.6,355.5 L207.3,348.2 L203.8,338.9 L206.4,337.0 L204.7,332.5 L203.7,330.3 L202.0,330.8 L201.6,328.3 L196.4,325.7 L197.6,324.1 L195.3,315.1 L189.4,307.8 L187.1,300.1 L184.8,296.9 L182.7,296.9 L183.6,283.3 L180.7,265.3 L183.4,266.0 L183.8,264.3 L184.6,267.7 L187.5,269.6 L194.1,267.1 L197.4,269.7 L198.6,261.9 L202.2,265.9 L203.2,264.5 L209.0,267.6 L210.5,265.7 L207.0,263.6 L208.4,263.3 L207.3,262.4 L204.7,261.5 L204.1,262.8 L202.2,262.5 L196.0,257.6 L193.1,257.7 L191.9,255.2 L188.2,254.5 L187.9,252.1 L180.7,251.1 L179.9,252.5 L178.4,251.1 L178.1,249.7 L178.9,249.2 L178.9,249.0 L178.0,249.9 L176.8,256.9 L182.6,263.1 L179.0,264.2 L175.0,258.4 L170.7,257.9 L167.2,254.6 L161.8,253.2 L161.2,249.3 L166.4,246.6 L164.6,238.2 L174.3,242.0 L176.7,240.3 L174.4,240.8 L169.5,237.3 L166.4,226.0 L167.9,223.8 L170.2,228.3 L176.2,227.8 L179.3,232.1 L181.2,231.8 L181.7,230.1 L183.6,231.1 L186.2,228.5 L188.7,234.4 L193.6,239.7 L198.4,235.4 L202.1,240.2 L202.9,242.7 L201.2,244.2 L203.4,247.1 L205.4,245.5 L206.2,247.4 L207.9,246.8 L211.7,241.6 L213.0,243.7 L218.8,243.3 L221.5,245.2 L222.8,243.1 L226.7,242.2 L228.5,234.8 L223.5,231.8 L223.1,227.8 L220.6,225.3 L225.2,219.4 L225.5,217.1 L222.6,212.2 L225.9,209.1 L227.9,209.9 L230.2,202.9 L225.0,196.2 L221.6,196.0 L220.8,193.8 L225.9,188.8 L227.1,185.7 L229.2,185.5 L230.9,189.9 L235.9,190.7 L237.2,188.0 L235.8,183.6 L238.0,182.7 L238.0,179.6 L240.9,175.8 L241.2,173.0 L248.7,168.7 L248.8,164.1 L244.9,161.2 L246.9,158.6 L244.6,153.0 L250.4,146.8 L249.8,145.5 L254.5,144.0 L255.5,140.3 L259.6,140.7 L267.1,134.1 L274.4,134.3 L277.9,131.6 L277.8,133.4 L282.9,135.4 L285.4,140.3 L286.3,136.9 L284.4,134.0 L284.9,131.0 L287.3,128.8 L284.1,126.3 L298.4,129.1 L315.4,129.1 L319.0,117.9 L324.5,117.2 L329.3,109.3 L335.5,105.9 L337.4,106.8 L345.7,96.3 L354.9,95.1 L357.2,90.6 L356.9,87.5 L359.3,85.1 L363.2,84.1 L363.1,82.6 L370.9,85.0 L373.5,84.2 L374.1,87.0 L376.3,85.5 L377.0,88.2 L380.2,88.0 L380.3,92.7 L379.0,93.1 L378.1,90.3 L376.8,92.2 L378.7,95.9 L374.7,97.2 L378.1,97.4 L382.1,105.0 L381.2,118.7 L381.8,124.2 L383.1,124.4 L382.6,131.1 L379.6,136.0 L376.0,138.2 L368.6,138.5 L362.6,135.2 L356.9,122.2 L357.0,118.5 L355.6,117.7 L354.8,111.1 L356.5,108.9 L354.7,104.8 L352.5,115.4 L350.8,115.1 L350.9,122.2 L345.3,124.7 L338.7,133.1 L340.2,146.2 L344.4,146.6 L346.0,144.7 L344.5,141.3 L345.8,137.0 L350.1,135.1 L353.4,149.4 L357.1,150.4 L362.0,142.4 L371.1,144.2 L376.4,143.7 L378.6,147.8 L378.6,150.3 L377.3,150.9 L378.1,153.6 L386.3,147.6 L386.9,143.2 L395.9,136.9 L396.8,131.2 L402.5,140.0 L400.0,147.2 L395.9,144.6 L391.4,145.4 L390.3,152.3 L391.5,154.8 L396.4,156.9 L401.6,152.7 L405.2,154.6 L406.5,152.6 L407.6,153.9 L421.1,155.9 L421.0,158.5 L423.0,158.2 L422.7,156.2 L429.8,156.5 L432.0,158.2 L429.2,157.3 L426.5,161.7 L423.2,161.4 L427.9,166.0 L432.1,164.1 L437.5,168.3 L446.7,168.5 L446.1,171.7 L443.4,173.8 L444.9,176.0 L447.6,173.1 L449.7,174.2 L452.8,172.7 L453.8,165.5 L457.7,164.7 L466.7,174.1 L467.6,178.2 L473.0,185.7 L475.1,193.6 L480.9,188.7 L478.9,187.5 L478.7,179.8 L477.3,177.8 L476.0,178.8 L483.3,167.8 L481.8,166.1 L482.9,163.4 L491.1,160.0 L500.7,148.8 L509.3,154.6 L510.0,156.1 L508.3,159.7 L501.6,167.6 L502.2,173.8 L493.7,192.8 L495.1,200.5 L490.2,206.9 L482.3,212.6 L480.2,212.2 L479.7,215.3 L475.7,215.5 L474.8,214.1 L476.6,213.2 L470.3,209.7 L470.0,212.1 L472.3,215.3 L479.9,220.5 L482.6,218.0 L489.9,215.8 L496.7,209.5 L497.8,202.3 L499.8,199.1 L502.3,198.8 L507.7,199.4 L508.8,205.7 L506.1,212.7 L507.7,215.7 L512.4,216.9 L507.6,213.5 L509.5,209.1 L511.0,208.8 L511.9,201.7 L506.9,196.1 L502.0,196.0 L498.7,193.4 L500.4,187.0 L506.2,180.0 L505.5,169.4 L509.1,166.0 L514.6,164.5 L516.6,157.3 L518.3,158.1 L517.6,163.8 L514.8,166.8 L512.6,173.4 L517.2,177.5 L519.6,177.9 L521.2,181.2 L523.4,181.8 L524.1,181.3 L522.4,180.8 L522.0,177.5 L517.1,172.5 L517.1,168.2 L520.3,167.9 L521.8,170.7 L524.1,170.7 L524.2,168.5 L522.3,167.7 L525.9,165.7 L529.8,166.9 L535.2,176.2 L540.1,177.4 L538.9,180.2 L536.1,181.7 L533.7,188.7 L533.3,190.9 L537.2,185.5 L534.5,193.2 L535.6,194.9 L539.2,190.6 L538.6,184.1 L541.4,178.2 L538.2,170.6 L534.7,167.1 L537.3,155.2 L552.0,157.1 L557.6,156.3 L553.2,160.6 L553.0,161.8 L555.3,164.8 L553.7,160.5 L559.6,157.5 L555.8,151.0 L557.3,149.7 L559.6,151.1 L555.9,147.1 L557.6,145.5 L558.6,147.2 L559.9,146.4 L561.7,144.0 L560.7,142.0 L562.5,142.8 L570.6,138.7 L582.0,136.2 L578.7,136.0 L579.9,133.9 L586.4,133.9 L587.8,134.7 L586.4,136.8 L588.9,135.6 L588.8,136.9 L595.0,133.1 L598.1,135.6 L597.4,138.3 L598.3,136.7 L598.2,134.4 L595.4,130.3 L603.1,130.8 L601.2,129.4 L601.3,124.4 L608.8,115.4 L614.3,119.0 L609.7,122.7 L618.4,124.1 L616.1,129.2 L619.7,128.7 L620.6,126.1 L628.4,125.1 L630.9,126.7 L631.3,128.7 L633.1,128.3 L633.9,132.1 L635.2,129.5 L637.7,133.7 L637.3,137.2 L633.8,134.6 L638.2,138.4 L636.9,143.7 L628.9,153.1 L624.8,160.8 L618.8,165.8 L615.8,172.1 L619.9,167.7 L624.0,166.8 L630.4,162.6 L633.1,159.3 L629.4,159.7 L630.7,156.3 L633.3,156.8 L634.7,155.6 L634.6,157.9 L637.2,158.8 L639.1,158.0 L639.5,156.0 L642.2,162.1 L642.1,168.0 L643.1,169.8 L644.3,169.8 L642.4,168.2 L643.4,161.8 L641.9,160.3 L647.2,156.9 L658.6,156.0 L658.1,159.5 L663.0,161.3 L671.3,159.8 L672.8,159.0 L671.9,157.9 L673.9,158.1 L674.4,155.1 L672.2,150.1 L675.1,148.1 L679.4,150.1 L681.0,148.3 L682.8,150.2 L683.3,147.4 L685.7,147.2 L691.4,149.3 L690.9,152.2 L693.7,153.3 L691.9,156.1 L695.1,156.0 L696.7,158.6 L695.6,160.1 L690.5,158.0 L691.1,159.2 L697.0,163.5 L697.2,161.4 L698.8,162.8 L697.2,164.5 L702.6,168.7 L709.0,170.3 L708.0,156.2 L713.7,159.4 L717.1,158.1 L720.2,153.5 L728.6,154.8 L726.8,149.8 L728.2,148.5 L730.6,149.5 L732.6,147.5 L728.0,144.4 L729.0,140.6 L726.2,142.7 L725.1,141.2 L725.5,138.8 L729.1,135.2 L726.4,132.9 L744.2,126.3 L744.7,127.1 L740.6,129.9 L740.5,132.5 L746.7,126.3 L747.2,131.0 L746.2,129.0 L744.3,129.2 L746.3,131.8 L744.5,133.3 L746.4,135.1 L748.0,132.3 L747.6,125.1 L754.7,121.6 L758.0,122.8 L756.7,126.9 L762.3,124.5 L763.1,128.2 L764.3,124.8 L766.7,124.1 L770.0,125.0 L769.4,126.2 L772.5,125.5 L781.2,112.8 L785.0,109.6 L790.2,107.9 L795.8,109.6 L798.8,113.5 L804.0,112.0 L810.2,115.1 L812.8,119.6 L811.5,114.9 L807.4,111.7 L807.0,108.2 L808.5,104.4 L818.7,94.6 L818.9,89.9 L824.0,91.3 L827.9,89.1 L831.3,89.9 L832.9,86.6 L831.0,83.2 L825.9,82.0 L824.7,83.1 L820.8,79.3 L828.9,71.8 L828.0,70.6 L833.0,62.6 L843.0,55.0 L848.9,52.7 L887.8,70.1 L889.5,78.4 L886.9,81.1 L881.6,82.9 L880.8,85.3 L882.7,82.7 L884.8,83.6 L881.0,86.8 L880.4,94.4 L881.6,87.1 L884.1,86.9 L884.8,88.4 L885.6,82.3 L890.7,83.3 L892.3,82.2 L891.2,80.7 L897.2,81.2 L899.4,83.4 L904.9,81.3 L909.4,82.1 L912.9,86.2 L906.3,93.1 L904.7,92.0 L904.0,93.4 L906.4,93.8 L907.3,109.2 L906.1,113.7 L907.7,117.5 L906.4,118.4 L908.0,119.0 L909.0,122.6 L909.9,134.1 L913.4,137.9 L904.6,139.3 L900.4,149.1 L902.3,156.6 L897.1,152.4 L896.5,160.3 L898.2,162.4 L895.0,162.9 L895.1,165.7 L892.8,166.4 L893.6,169.6 L897.3,173.1 L900.6,183.7 L903.0,186.9 L907.5,187.4 L906.5,184.7 L909.8,183.2 L911.9,188.1 L915.9,191.2 L919.2,190.3 L923.3,192.9 L922.9,196.3 L920.7,196.2 L919.8,192.4 L918.7,194.3 L919.9,199.6 L923.4,205.3 L931.0,208.4 L931.1,212.3 L927.5,216.2 L927.6,221.9 L929.9,225.8 L935.9,229.4 L933.2,230.8 L932.3,237.1 L930.2,237.6 L935.4,242.1 L938.2,248.0 L938.8,259.9 L934.4,258.8 L903.8,237.4 L891.3,222.3 L890.2,214.3 L886.4,210.8 L888.6,208.1 L887.7,205.6 L890.1,203.2 L883.6,170.5 L885.2,160.8 L883.7,160.7 L882.5,156.8 L880.8,156.9 L875.0,149.9 L874.7,147.2 L877.3,144.1 L872.1,146.4 L870.2,151.6 L877.7,159.1 L875.8,159.1 L874.7,161.2 L876.9,173.8 L875.9,177.0 L873.4,173.5 L872.0,176.3 L866.1,167.8 L865.0,171.9 L862.1,171.8 L857.0,181.5 L861.0,205.6 L862.7,208.5 L866.4,205.9 L869.1,207.1 L866.2,209.7 L865.5,212.4 L862.0,213.9 L861.9,218.1 L859.2,219.2 L856.3,224.1 L854.0,223.2 L857.5,217.9 L851.5,218.6 L848.5,222.3 L848.8,221.1 L843.1,223.1 L841.7,226.2 L843.3,226.9 L841.3,227.9 L842.2,229.4 L843.1,228.7 L842.9,230.4 L839.9,230.8 L837.7,234.5 L832.3,236.3 L832.1,240.3 L828.4,239.9 L816.5,251.0 L813.9,264.8 L815.2,270.2 L811.4,283.3 L811.1,293.7 L804.8,312.0 L805.9,314.0 L809.9,313.6 L814.7,310.3 L818.7,318.1 L820.9,316.5 L818.9,313.3 L821.2,310.7 L820.4,313.4 L823.9,313.2 L822.9,318.7 L826.4,315.9 L827.5,310.8 L828.5,315.7 L829.5,314.9 L828.9,311.0 L826.3,307.3 L830.4,306.1 L831.9,304.0 L846.4,307.0 L847.1,310.1 L844.8,310.7 L848.5,311.4 L850.2,315.4 L853.7,316.4 L856.5,332.1 L861.3,338.1 L867.7,353.7 L866.5,373.0 L867.7,387.8 L863.7,408.2 L863.1,419.0 L858.3,428.7 L853.5,434.3 L846.5,435.5 L844.5,431.4 L842.4,435.0 L841.9,432.8 L839.5,442.1 L836.2,443.3 L837.7,444.2 L837.3,446.7 Z M205.6,260.6 L205.7,260.5 L205.6,260.6 L205.6,260.6 Z M208.9,258.6 L208.9,258.6 L208.9,258.6 L208.9,258.6 Z M209.4,258.7 L209.9,259.1 L209.3,258.7 L209.4,258.7 Z M210.2,259.4 L210.7,259.6 L210.1,259.0 L210.2,259.4 Z M211.1,259.8 L211.2,259.9 L211.1,259.8 L211.1,259.8 Z M211.7,259.9 L211.5,259.8 L211.4,259.9 L211.7,259.9 Z M212.9,259.8 L212.8,259.8 L212.8,259.8 L212.9,259.8 Z M213.1,259.7 L213.1,259.7 L212.9,259.8 L213.1,259.7 Z M213.4,259.7 L214.6,260.9 L214.8,261.2 L214.0,259.7 L213.4,259.7 Z M214.9,261.6 L216.0,262.9 L216.1,263.0 L216.1,262.4 L214.9,261.6 Z M216.6,263.5 L216.6,263.2 L216.1,263.0 L216.6,263.5 Z M219.3,263.9 L219.5,263.6 L219.3,263.9 L219.3,263.9 Z M221.8,263.2 L221.8,263.1 L221.7,263.2 L221.8,263.2 Z M222.1,262.7 L222.0,262.7 L222.0,262.7 L222.1,262.7 Z M222.2,261.9 L222.1,261.9 L222.0,262.1 L222.2,261.9 Z M223.4,260.9 L223.6,260.7 L223.3,261.1 L223.4,260.9 Z M226.1,258.1 L226.2,259.0 L226.4,259.2 L226.1,258.1 Z M226.6,258.0 L226.6,258.0 L226.6,258.0 L226.6,258.0 Z M227.3,256.1 L227.5,256.6 L228.3,257.1 L227.3,256.1 Z M230.0,257.1 L229.9,257.0 L229.3,257.1 L230.0,257.1 Z M232.0,255.6 L231.9,255.7 L231.9,255.8 L232.0,255.6 Z M232.6,255.0 L233.1,254.8 L232.1,255.4 L232.6,255.0 Z M232.3,253.5 L231.9,253.0 L232.8,253.7 L232.3,253.5 Z M231.9,251.7 L231.7,252.1 L231.9,252.4 L231.9,251.7 Z M231.2,248.8 L231.2,248.8 L231.2,248.9 L231.2,248.8 Z M231.4,248.5 L231.4,248.5 L231.4,248.5 L231.4,248.5 Z M230.6,247.4 L230.7,247.5 L231.1,247.6 L230.6,247.4 Z M230.1,246.7 L230.0,247.0 L230.5,247.2 L230.1,246.7 Z M230.0,245.6 L230.0,245.6 L230.0,245.6 L230.0,245.6 Z M230.0,245.2 L230.0,245.3 L230.0,245.3 L230.0,245.2 Z M229.2,242.4 L229.2,242.5 L229.2,242.7 L229.2,242.4 Z M228.4,242.0 L227.9,241.8 L227.5,241.8 L228.4,242.0 Z M177.3,243.2 L177.7,244.0 L177.2,241.3 L177.3,243.2 Z M178.9,247.8 L178.7,247.2 L178.4,247.2 L178.9,247.8 Z M848.9,52.7 L853.0,49.7 L859.2,48.7 L858.9,47.5 L855.7,48.6 L859.7,46.6 L860.4,47.1 L869.3,40.7 L872.5,42.0 L873.3,40.0 L880.6,43.0 L884.3,41.9 L883.4,40.1 L885.9,40.9 L884.2,39.0 L881.6,40.2 L878.6,38.4 L876.4,39.8 L877.1,36.1 L878.6,34.3 L879.5,35.3 L880.8,35.5 L879.3,34.7 L880.6,32.1 L878.8,33.7 L881.8,29.2 L890.3,26.4 L892.4,23.3 L893.9,23.9 L894.4,27.3 L896.8,28.6 L893.8,31.3 L897.4,30.9 L896.5,34.3 L893.3,37.5 L896.4,35.9 L898.2,36.8 L898.0,38.4 L900.6,37.1 L901.8,41.7 L906.9,40.0 L905.0,41.9 L907.0,42.8 L906.9,44.3 L904.3,43.7 L905.4,46.1 L900.6,48.5 L898.4,51.7 L895.6,52.9 L890.5,52.2 L887.5,55.6 L886.4,61.7 L880.2,61.6 L877.2,58.4 L878.7,60.7 L876.4,61.0 L878.2,62.6 L877.3,63.9 L880.0,65.6 L884.5,65.5 L887.8,70.1 L848.9,52.7 Z M849.6,293.9 L851.4,297.1 L858.6,302.7 L864.2,312.0 L878.0,323.9 L893.4,334.3 L885.7,331.8 L880.7,336.1 L886.5,351.1 L896.3,356.5 L898.2,355.8 L901.2,358.8 L902.4,362.3 L898.2,358.3 L893.0,360.1 L894.8,369.1 L890.0,365.4 L882.7,350.2 L876.3,345.0 L873.0,336.8 L863.3,322.1 L857.6,319.4 L854.0,314.9 L848.4,304.4 L849.2,302.5 L851.2,302.2 L850.9,299.0 L845.5,294.9 L846.5,292.5 L849.6,293.9 Z M511.3,113.2 L491.6,113.3 L483.0,117.4 L482.4,115.9 L480.6,117.6 L479.4,116.6 L477.9,119.3 L474.3,119.8 L472.7,122.0 L472.0,120.6 L471.4,122.7 L468.0,124.3 L466.2,123.9 L463.5,119.8 L461.0,119.3 L462.5,114.5 L466.1,114.5 L470.9,111.6 L473.4,112.4 L473.0,110.2 L477.4,108.8 L476.9,106.0 L478.5,107.6 L480.9,105.7 L482.6,107.0 L489.0,104.2 L493.8,104.0 L495.2,105.3 L497.1,103.6 L501.0,106.6 L505.4,107.2 L516.5,104.7 L518.2,107.4 L517.2,110.7 L511.3,113.2 Z M462.5,120.0 L465.5,124.8 L462.1,127.8 L458.4,128.7 L454.0,134.0 L451.8,143.9 L452.9,149.8 L450.5,150.0 L449.2,147.1 L448.2,148.7 L441.4,139.2 L445.3,138.8 L444.7,135.2 L446.0,133.6 L441.6,130.8 L442.4,127.1 L444.9,124.9 L449.3,125.1 L452.6,122.5 L452.4,120.9 L455.6,121.3 L457.7,118.6 L462.5,120.0 Z M700.8,104.4 L709.1,106.8 L707.4,100.9 L712.0,101.6 L714.3,100.0 L720.5,100.2 L720.7,107.0 L718.1,107.8 L715.6,106.5 L713.6,102.6 L712.3,103.9 L714.0,106.9 L719.0,109.3 L718.4,111.8 L716.1,111.0 L712.8,115.3 L710.6,115.1 L711.0,119.0 L707.5,119.2 L702.2,116.6 L699.8,111.1 L700.8,110.3 L699.3,108.2 L700.8,104.4 Z M594.3,87.2 L593.6,91.2 L595.7,87.7 L598.8,91.1 L598.0,96.6 L596.6,97.0 L598.5,101.0 L595.0,103.0 L587.3,99.5 L585.8,95.1 L583.4,93.8 L588.2,86.8 L594.3,87.2 Z M216.7,118.1 L213.0,117.4 L213.0,119.3 L214.0,120.9 L217.3,119.7 L218.9,127.9 L217.8,130.2 L212.7,132.3 L205.4,114.1 L210.8,114.2 L212.9,116.9 L216.7,118.1 Z M590.8,72.3 L594.5,78.9 L592.9,80.7 L593.1,84.9 L585.3,87.7 L581.3,82.9 L585.4,78.0 L584.0,78.0 L584.5,76.7 L589.5,72.4 L590.8,72.3 Z M604.9,95.7 L604.3,102.4 L607.3,98.5 L610.7,102.3 L611.4,106.0 L610.1,108.0 L601.6,110.2 L597.5,112.8 L602.3,96.3 L603.8,97.4 L603.8,95.2 L604.9,95.7 Z M725.5,98.7 L728.2,95.7 L729.9,97.0 L735.5,93.4 L736.7,95.5 L735.6,99.1 L732.4,101.4 L724.6,101.8 L722.8,97.7 L725.5,98.7 Z M724.6,120.9 L728.9,121.9 L731.4,124.8 L722.5,127.9 L720.7,130.3 L721.0,123.2 L724.6,120.9 Z M825.3,36.1 L830.4,34.7 L830.3,42.1 L828.7,43.7 L823.1,41.2 L825.3,36.1 Z M509.5,44.0 L509.6,47.7 L502.5,47.0 L501.2,49.0 L498.6,47.9 L500.1,46.7 L498.3,45.9 L498.8,44.4 L502.6,44.1 L504.2,45.9 L507.0,43.3 L509.5,44.0 Z M419.8,146.9 L412.4,145.6 L415.4,140.3 L419.8,140.7 L419.8,146.9 Z M456.6,163.4 L455.5,164.8 L452.9,163.2 L453.3,161.6 L451.8,160.2 L453.0,155.4 L455.5,155.2 L456.6,163.4 Z M517.4,47.2 L519.4,50.5 L519.5,54.2 L515.8,53.5 L514.3,49.5 L517.4,47.2 Z M938.8,343.5 L934.5,351.8 L933.9,360.3 L933.3,347.2 L936.4,346.1 L937.6,341.8 L938.8,343.5 Z M527.5,58.8 L523.0,61.5 L520.7,59.8 L523.5,55.7 L527.0,57.1 L527.5,58.8 Z M828.6,48.5 L825.6,47.5 L823.1,41.2 L828.7,43.7 L828.6,48.5 Z" fill="none" fill-rule="evenodd" stroke="#ffffff" stroke-opacity="0.62" stroke-width="0.9" stroke-linejoin="round"/>
</svg>